# xmcd
#
# Track frame offsets:
#	150
#	11407
#	21115
#	35677
#	46530
#	53827
#	60492
#	71497
#	83572
#	95222
#	112782
#	128030
#	144647
#	157165
#	164277
#	180842
#	196305
#
# Disc length: 2793 seconds
#
# Revision: 2
# Processed by: cddbd v1.5.2PL0 Copyright (c) Steve Scherf et al.
# Submitted via: audiograbber 1.83.01
#
DISCID=d40ae711
DTITLE=Shanty Chor Hamburg e.V. " De Tampentrekker" - A long time ago
DYEAR=2000
DGENRE=Shanty
TTITLE0=Blow ye Winds
TTITLE1=Hein Cohrs op St. Pauli
TTITLE2=Und dann auf See
TTITLE3=Finster war die Nacht
TTITLE4=A long Time ago
TTITLE5=Can't you dance the Polka
TTITLE6=Shenandoah 
TTITLE7=The Girls of Trinidad
TTITLE8=Die Kneipe am Moor
TTITLE9=Biscaya
TTITLE10=Sloop John B.
TTITLE11=Natrowje Hamburg
TTITLE12=Jamaica Farewell
TTITLE13=Dat Leed vun'n Tüdelband
TTITLE14=Molly Malone
TTITLE15=Auf der Reeperbahn 
TTITLE16=Mein Hafen heißt Hamburg
EXTD=
EXTT0=
EXTT1=
EXTT2=
EXTT3=
EXTT4=
EXTT5=
EXTT6=
EXTT7=
EXTT8=
EXTT9=
EXTT10=
EXTT11=
EXTT12=
EXTT13=
EXTT14=
EXTT15=
EXTT16=
PLAYORDER=
